{
  "accessors": [
    {
      "bufferView": 2,
      "componentType": 5126,
      "count": 1427,
      "max": [
        99.34968566894531,
        182.34266662597656,
        92.41936492919922
      ],
      "min": [
        -99.34969329833984,
        -128.91629028320313,
        -92.41936492919922
      ],
      "type": "VEC3"
    },
    {
      "bufferView": 2,
      "byteOffset": 17124,
      "componentType": 5126,
      "count": 1427,
      "max": [
        1.0,
        1.0,
        1.0
      ],
      "min": [
        -1.0,
        -1.0,
        -1.0
      ],
      "type": "VEC3"
    },
    {
      "bufferView": 1,
      "componentType": 5126,
      "count": 1427,
      "max": [
        0.9404977560043335,
        0.9404978156089783
      ],
      "min": [
        0.009433750063180923,
        0.009658504277467728
      ],
      "type": "VEC2"
    },
    {
      "bufferView": 1,
      "byteOffset": 11416,
      "componentType": 5126,
      "count": 1427,
      "max": [
        0.9404977560043335,
        0.9404978156089783
      ],
      "min": [
        0.009433750063180923,
        0.009658504277467728
      ],
      "type": "VEC2"
    },
    {
      "bufferView": 0,
      "componentType": 5125,
      "count": 7104,
      "type": "SCALAR"
    },
    {
      "bufferView": 2,
      "byteOffset": 34248,
      "componentType": 5126,
      "count": 1599,
      "max": [
        109.30122375488281,
        188.5118408203125,
        103.13705444335938
      ],
      "min": [
        -109.30122375488281,
        -168.4922332763672,
        -103.13705444335938
      ],
      "type": "VEC3"
    },
    {
      "bufferView": 2,
      "byteOffset": 53436,
      "componentType": 5126,
      "count": 1599,
      "max": [
        1.0,
        1.0,
        1.0
      ],
      "min": [
        -1.0,
        -1.0,
        -1.0
      ],
      "type": "VEC3"
    },
    {
      "bufferView": 1,
      "byteOffset": 22832,
      "componentType": 5126,
      "count": 1599,
      "max": [
        0.8359981179237366,
        0.8952146768569946
      ],
      "min": [
        0.1419656127691269,
        0.009764065034687519
      ],
      "type": "VEC2"
    },
    {
      "bufferView": 1,
      "byteOffset": 35624,
      "componentType": 5126,
      "count": 1599,
      "max": [
        0.8359981179237366,
        0.8952146768569946
      ],
      "min": [
        0.1419656127691269,
        0.009764065034687519
      ],
      "type": "VEC2"
    },
    {
      "bufferView": 0,
      "byteOffset": 28416,
      "componentType": 5125,
      "count": 7872,
      "type": "SCALAR"
    },
    {
      "bufferView": 2,
      "byteOffset": 72624,
      "componentType": 5126,
      "count": 1927,
      "max": [
        75.5565185546875,
        263.38189697265625,
        76.07657623291016
      ],
      "min": [
        -75.018798828125,
        172.25546264648438,
        -72.73089599609375
      ],
      "type": "VEC3"
    },
    {
      "bufferView": 2,
      "byteOffset": 95748,
      "componentType": 5126,
      "count": 1927,
      "max": [
        0.9876955151557922,
        0.9998296499252319,
        0.9998729228973389
      ],
      "min": [
        -0.9955405592918396,
        -0.9999966025352478,
        -0.9983739256858826
      ],
      "type": "VEC3"
    },
    {
      "bufferView": 1,
      "byteOffset": 48416,
      "componentType": 5126,
      "count": 1927,
      "max": [
        0.9875227212905884,
        0.9753311276435852
      ],
      "min": [
        0.009453087113797665,
        0.009627400897443295
      ],
      "type": "VEC2"
    },
    {
      "bufferView": 1,
      "byteOffset": 63832,
      "componentType": 5126,
      "count": 1927,
      "max": [
        0.9875227212905884,
        0.9753311276435852
      ],
      "min": [
        0.009453087113797665,
        0.009627400897443295
      ],
      "type": "VEC2"
    },
    {
      "bufferView": 0,
      "byteOffset": 59904,
      "componentType": 5125,
      "count": 8538,
      "type": "SCALAR"
    },
    {
      "bufferView": 2,
      "byteOffset": 118872,
      "componentType": 5126,
      "count": 12644,
      "max": [
        203.10452270507813,
        207.09165954589844,
        141.0209503173828
      ],
      "min": [
        -149.58596801757813,
        -149.7661590576172,
        -139.03318786621094
      ],
      "type": "VEC3"
    },
    {
      "bufferView": 2,
      "byteOffset": 270600,
      "componentType": 5126,
      "count": 12644,
      "max": [
        0.9997650384902954,
        0.9994127154350281,
        0.9997148513793945
      ],
      "min": [
        -0.9998751878738403,
        -0.9999749660491943,
        -0.99971604347229
      ],
      "type": "VEC3"
    },
    {
      "bufferView": 1,
      "byteOffset": 79248,
      "componentType": 5126,
      "count": 12644,
      "max": [
        0.9875227808952332,
        0.991006076335907
      ],
      "min": [
        0.009131022728979588,
        0.00903313234448433
      ],
      "type": "VEC2"
    },
    {
      "bufferView": 1,
      "byteOffset": 180400,
      "componentType": 5126,
      "count": 12644,
      "max": [
        0.9875227808952332,
        0.991006076335907
      ],
      "min": [
        0.009131022728979588,
        0.00903313234448433
      ],
      "type": "VEC2"
    },
    {
      "bufferView": 0,
      "byteOffset": 94056,
      "componentType": 5125,
      "count": 58200,
      "type": "SCALAR"
    },
    {
      "bufferView": 2,
      "byteOffset": 422328,
      "componentType": 5126,
      "count": 1469,
      "max": [
        33.09142303466797,
        322.5996398925781,
        26.79966163635254
      ],
      "min": [
        -32.9648323059082,
        248.0968780517578,
        -22.411788940429688
      ],
      "type": "VEC3"
    },
    {
      "bufferView": 2,
      "byteOffset": 439956,
      "componentType": 5126,
      "count": 1469,
      "max": [
        0.9998670220375061,
        0.9963778853416443,
        0.9991007447242737
      ],
      "min": [
        -0.9979346990585327,
        -0.9995893836021423,
        -0.998168408870697
      ],
      "type": "VEC3"
    },
    {
      "bufferView": 1,
      "byteOffset": 281552,
      "componentType": 5126,
      "count": 1469,
      "max": [
        0.9718477129936218,
        0.9892643690109253
      ],
      "min": [
        0.039030276238918304,
        0.010669965296983719
      ],
      "type": "VEC2"
    },
    {
      "bufferView": 1,
      "byteOffset": 293304,
      "componentType": 5126,
      "count": 1469,
      "max": [
        0.9718477129936218,
        0.9892643690109253
      ],
      "min": [
        0.039030276238918304,
        0.010669965296983719
      ],
      "type": "VEC2"
    },
    {
      "bufferView": 0,
      "byteOffset": 326856,
      "componentType": 5125,
      "count": 6900,
      "type": "SCALAR"
    },
    {
      "bufferView": 2,
      "byteOffset": 457584,
      "componentType": 5126,
      "count": 1469,
      "max": [
        36.09101867675781,
        325.5896301269531,
        29.79694366455078
      ],
      "min": [
        -35.94895553588867,
        245.09808349609375,
        -25.406625747680664
      ],
      "type": "VEC3"
    },
    {
      "bufferView": 2,
      "byteOffset": 475212,
      "componentType": 5126,
      "count": 1469,
      "max": [
        0.9982478618621826,
        0.9995911121368408,
        0.9983106851577759
      ],
      "min": [
        -0.9998667240142822,
        -0.9966784715652466,
        -0.9991004467010498
      ],
      "type": "VEC3"
    },
    {
      "bufferView": 1,
      "byteOffset": 305056,
      "componentType": 5126,
      "count": 1469,
      "max": [
        0.9718477129936218,
        0.9892643690109253
      ],
      "min": [
        0.039030276238918304,
        0.010669965296983719
      ],
      "type": "VEC2"
    },
    {
      "bufferView": 0,
      "byteOffset": 354456,
      "componentType": 5125,
      "count": 6900,
      "type": "SCALAR"
    },
    {
      "bufferView": 2,
      "byteOffset": 492840,
      "componentType": 5126,
      "count": 3429,
      "max": [
        83.83554077148438,
        61.39767074584961,
        74.9758529663086
      ],
      "min": [
        -83.4431381225586,
        -106.8913345336914,
        -46.69445037841797
      ],
      "type": "VEC3"
    },
    {
      "bufferView": 2,
      "byteOffset": 533988,
      "componentType": 5126,
      "count": 3429,
      "max": [
        0.9974714517593384,
        0.9997957944869995,
        0.9999702572822571
      ],
      "min": [
        -0.9980866312980652,
        -0.9994798898696899,
        -0.9994709491729736
      ],
      "type": "VEC3"
    },
    {
      "bufferView": 1,
      "byteOffset": 316808,
      "componentType": 5126,
      "count": 3429,
      "max": [
        0.9875227212905884,
        0.9875226616859436
      ],
      "min": [
        0.009361142292618752,
        0.009748749434947968
      ],
      "type": "VEC2"
    },
    {
      "bufferView": 1,
      "byteOffset": 344240,
      "componentType": 5126,
      "count": 3429,
      "max": [
        0.9875227212905884,
        0.9875226616859436
      ],
      "min": [
        0.009361142292618752,
        0.009748749434947968
      ],
      "type": "VEC2"
    },
    {
      "bufferView": 0,
      "byteOffset": 382056,
      "componentType": 5125,
      "count": 15582,
      "type": "SCALAR"
    },
    {
      "bufferView": 2,
      "byteOffset": 575136,
      "componentType": 5126,
      "count": 1580,
      "max": [
        57.14413070678711,
        19.91964340209961,
        48.31476974487305
      ],
      "min": [
        -71.89490509033203,
        -126.52195739746094,
        -71.5237808227539
      ],
      "type": "VEC3"
    },
    {
      "bufferView": 2,
      "byteOffset": 594096,
      "componentType": 5126,
      "count": 1580,
      "max": [
        0.9995493292808533,
        0.9971429109573364,
        0.999935507774353
      ],
      "min": [
        -0.9962533116340637,
        -0.9966153502464294,
        -0.9966527819633484
      ],
      "type": "VEC3"
    },
    {
      "bufferView": 1,
      "byteOffset": 371672,
      "componentType": 5126,
      "count": 1580,
      "max": [
        0.9822977185249329,
        0.9892643690109253
      ],
      "min": [
        0.00998898595571518,
        0.010283066891133785
      ],
      "type": "VEC2"
    },
    {
      "bufferView": 1,
      "byteOffset": 384312,
      "componentType": 5126,
      "count": 1580,
      "max": [
        0.9822977185249329,
        0.9892643690109253
      ],
      "min": [
        0.00998898595571518,
        0.010283066891133785
      ],
      "type": "VEC2"
    },
    {
      "bufferView": 0,
      "byteOffset": 444384,
      "componentType": 5125,
      "count": 6576,
      "type": "SCALAR"
    },
    {
      "bufferView": 2,
      "byteOffset": 613056,
      "componentType": 5126,
      "count": 757,
      "max": [
        60.41010665893555,
        96.33457946777344,
        52.48025131225586
      ],
      "min": [
        -21.51080322265625,
        31.768646240234375,
        -26.99298858642578
      ],
      "type": "VEC3"
    },
    {
      "bufferView": 2,
      "byteOffset": 622140,
      "componentType": 5126,
      "count": 757,
      "max": [
        0.998108983039856,
        0.9999837279319763,
        0.9968928694725037
      ],
      "min": [
        -0.9990967512130737,
        -0.9977997541427612,
        -0.9927489161491394
      ],
      "type": "VEC3"
    },
    {
      "bufferView": 1,
      "byteOffset": 396952,
      "componentType": 5126,
      "count": 757,
      "max": [
        0.9683644771575928,
        0.9788144826889038
      ],
      "min": [
        0.10090411454439163,
        0.06377945095300674
      ],
      "type": "VEC2"
    },
    {
      "bufferView": 1,
      "byteOffset": 403008,
      "componentType": 5126,
      "count": 757,
      "max": [
        0.9683644771575928,
        0.9788144826889038
      ],
      "min": [
        0.10090411454439163,
        0.06377945095300674
      ],
      "type": "VEC2"
    },
    {
      "bufferView": 0,
      "byteOffset": 470688,
      "componentType": 5125,
      "count": 3348,
      "type": "SCALAR"
    },
    {
      "bufferView": 2,
      "byteOffset": 631224,
      "componentType": 5126,
      "count": 23283,
      "max": [
        203.87249755859375,
        266.8681640625,
        142.78109741210938
      ],
      "min": [
        -151.18202209472656,
        -170.96588134765625,
        -142.44570922851563
      ],
      "type": "VEC3"
    },
    {
      "bufferView": 2,
      "byteOffset": 910620,
      "componentType": 5126,
      "count": 23283,
      "max": [
        0.9999294877052307,
        0.9998406171798706,
        0.9999803900718689
      ],
      "min": [
        -0.9999911189079285,
        -0.9999289512634277,
        -0.9998401999473572
      ],
      "type": "VEC3"
    },
    {
      "bufferView": 1,
      "byteOffset": 409064,
      "componentType": 5126,
      "count": 23283,
      "max": [
        0.9875227808952332,
        0.991006076335907
      ],
      "min": [
        0.009131022728979588,
        0.00903313234448433
      ],
      "type": "VEC2"
    },
    {
      "bufferView": 0,
      "byteOffset": 484080,
      "componentType": 5125,
      "count": 106830,
      "type": "SCALAR"
    }
  ],
  "asset": {
    "extras": {
      "author": "sch0i (https://sketchfab.com/sch0i)",
      "license": "CC-BY-4.0 (http://creativecommons.org/licenses/by/4.0/)",
      "source": "https://sketchfab.com/3d-models/halloween-potion-3c59ea5af6034c1fb3dbcfe1281a7331",
      "title": "Halloween potion👻"
    },
    "generator": "Sketchfab-15.44.0",
    "version": "2.0"
  },
  "bufferViews": [
    {
      "buffer": 0,
      "byteLength": 911400,
      "name": "floatBufferViews",
      "target": 34963
    },
    {
      "buffer": 0,
      "byteLength": 595328,
      "byteOffset": 911400,
      "byteStride": 8,
      "name": "floatBufferViews",
      "target": 34962
    },
    {
      "buffer": 0,
      "byteLength": 1190016,
      "byteOffset": 1506728,
      "byteStride": 12,
      "name": "floatBufferViews",
      "target": 34962
    }
  ],
  "buffers": [
    {
      "byteLength": 2696744,
      "uri": "scene.bin"
    }
  ],
  "extensionsUsed": [
    "KHR_materials_unlit"
  ],
  "images": [
    {
      "uri": "textures/halloweenpotion_baseColor.png"
    }
  ],
  "materials": [
    {
      "extensions": {
        "KHR_materials_unlit": {}
      },
      "name": "halloweenpotion",
      "pbrMetallicRoughness": {
        "baseColorTexture": {
          "index": 0
        },
        "metallicFactor": 0.0
      }
    },
    {
      "extensions": {
        "KHR_materials_unlit": {}
      },
      "name": "outline",
      "pbrMetallicRoughness": {
        "baseColorFactor": [
          0.0,
          0.0,
          0.0,
          1.0
        ],
        "metallicFactor": 0.0
      }
    }
  ],
  "meshes": [
    {
      "name": "colb_inside_halloweenpotion_0",
      "primitives": [
        {
          "attributes": {
            "NORMAL": 1,
            "POSITION": 0,
            "TEXCOORD_0": 2,
            "TEXCOORD_1": 3
          },
          "indices": 4,
          "material": 0,
          "mode": 4
        }
      ]
    },
    {
      "name": "colb_outside_halloweenpotion_0",
      "primitives": [
        {
          "attributes": {
            "NORMAL": 6,
            "POSITION": 5,
            "TEXCOORD_0": 7,
            "TEXCOORD_1": 8
          },
          "indices": 9,
          "material": 0,
          "mode": 4
        }
      ]
    },
    {
      "name": "pumpkin_halloweenpotion_0",
      "primitives": [
        {
          "attributes": {
            "NORMAL": 11,
            "POSITION": 10,
            "TEXCOORD_0": 12,
            "TEXCOORD_1": 13
          },
          "indices": 14,
          "material": 0,
          "mode": 4
        }
      ]
    },
    {
      "name": "veins_halloweenpotion_0",
      "primitives": [
        {
          "attributes": {
            "NORMAL": 16,
            "POSITION": 15,
            "TEXCOORD_0": 17,
            "TEXCOORD_1": 18
          },
          "indices": 19,
          "material": 0,
          "mode": 4
        }
      ]
    },
    {
      "name": "cat_halloweenpotion_0",
      "primitives": [
        {
          "attributes": {
            "NORMAL": 21,
            "POSITION": 20,
            "TEXCOORD_0": 22,
            "TEXCOORD_1": 23
          },
          "indices": 24,
          "material": 0,
          "mode": 4
        }
      ]
    },
    {
      "name": "cat_outline_0",
      "primitives": [
        {
          "attributes": {
            "NORMAL": 26,
            "POSITION": 25,
            "TEXCOORD_0": 27
          },
          "indices": 28,
          "material": 1,
          "mode": 4
        }
      ]
    },
    {
      "name": "ghosties_halloweenpotion_0",
      "primitives": [
        {
          "attributes": {
            "NORMAL": 30,
            "POSITION": 29,
            "TEXCOORD_0": 31,
            "TEXCOORD_1": 32
          },
          "indices": 33,
          "material": 0,
          "mode": 4
        }
      ]
    },
    {
      "name": "substance_halloweenpotion_0",
      "primitives": [
        {
          "attributes": {
            "NORMAL": 35,
            "POSITION": 34,
            "TEXCOORD_0": 36,
            "TEXCOORD_1": 37
          },
          "indices": 38,
          "material": 0,
          "mode": 4
        }
      ]
    },
    {
      "name": "ghostiewhite_halloweenpotion_0",
      "primitives": [
        {
          "attributes": {
            "NORMAL": 40,
            "POSITION": 39,
            "TEXCOORD_0": 41,
            "TEXCOORD_1": 42
          },
          "indices": 43,
          "material": 0,
          "mode": 4
        }
      ]
    },
    {
      "name": "outlines_outline_0",
      "primitives": [
        {
          "attributes": {
            "NORMAL": 45,
            "POSITION": 44,
            "TEXCOORD_0": 46
          },
          "indices": 47,
          "material": 1,
          "mode": 4
        }
      ]
    }
  ],
  "nodes": [
    {
      "children": [
        1
      ],
      "matrix": [
        1.0,
        0.0,
        0.0,
        0.0,
        0.0,
        2.220446049250313e-16,
        -1.0,
        0.0,
        0.0,
        1.0,
        2.220446049250313e-16,
        0.0,
        0.0,
        0.0,
        0.0,
        1.0
      ],
      "name": "Sketchfab_model"
    },
    {
      "children": [
        2
      ],
      "matrix": [
        0.009999999776482582,
        0.0,
        0.0,
        0.0,
        0.0,
        0.0,
        0.009999999776482582,
        0.0,
        0.0,
        -0.009999999776482582,
        0.0,
        0.0,
        0.0,
        0.0,
        0.0,
        1.0
      ],
      "name": "c9a93ec0456847e694fd88dab6b0a16d.fbx"
    },
    {
      "children": [
        3,
        5,
        7,
        9,
        11,
        14,
        16,
        18,
        20
      ],
      "name": "RootNode"
    },
    {
      "children": [
        4
      ],
      "matrix": [
        0.9718750540764955,
        0.23549708971409578,
        0.0,
        0.0,
        -0.23549708971409578,
        0.9718750540764955,
        0.0,
        0.0,
        0.0,
        0.0,
        1.0,
        0.0,
        0.0,
        0.0,
        0.0,
        1.0
      ],
      "name": "colb_inside"
    },
    {
      "mesh": 0,
      "name": "colb_inside_halloweenpotion_0"
    },
    {
      "children": [
        6
      ],
      "matrix": [
        0.9718750540764955,
        0.23549708971409578,
        0.0,
        0.0,
        -0.23549708971409578,
        0.9718750540764955,
        0.0,
        0.0,
        0.0,
        0.0,
        1.0,
        0.0,
        0.0,
        0.0,
        0.0,
        1.0
      ],
      "name": "colb_outside"
    },
    {
      "mesh": 1,
      "name": "colb_outside_halloweenpotion_0"
    },
    {
      "children": [
        8
      ],
      "matrix": [
        0.9718750540764955,
        0.23549708971409578,
        0.0,
        0.0,
        -0.23549708971409578,
        0.9718750540764955,
        0.0,
        0.0,
        0.0,
        0.0,
        1.0,
        0.0,
        0.0,
        0.0,
        0.0,
        1.0
      ],
      "name": "pumpkin"
    },
    {
      "mesh": 2,
      "name": "pumpkin_halloweenpotion_0"
    },
    {
      "children": [
        10
      ],
      "matrix": [
        0.9718750540764955,
        0.23549708971409578,
        0.0,
        0.0,
        -0.23549708971409578,
        0.9718750540764955,
        0.0,
        0.0,
        0.0,
        0.0,
        1.0,
        0.0,
        0.0,
        0.0,
        0.0,
        1.0
      ],
      "name": "veins"
    },
    {
      "mesh": 3,
      "name": "veins_halloweenpotion_0"
    },
    {
      "children": [
        12,
        13
      ],
      "matrix": [
        0.9718750540764955,
        0.23549708971409578,
        0.0,
        0.0,
        -0.23549708971409578,
        0.9718750540764955,
        0.0,
        0.0,
        0.0,
        0.0,
        1.0,
        0.0,
        0.0,
        0.0,
        0.0,
        1.0
      ],
      "name": "cat"
    },
    {
      "mesh": 4,
      "name": "cat_halloweenpotion_0"
    },
    {
      "mesh": 5,
      "name": "cat_outline_0"
    },
    {
      "children": [
        15
      ],
      "matrix": [
        0.9718750540764955,
        0.23549708971409578,
        0.0,
        0.0,
        -0.23549708971409578,
        0.9718750540764955,
        0.0,
        0.0,
        0.0,
        0.0,
        1.0,
        0.0,
        0.0,
        0.0,
        0.0,
        1.0
      ],
      "name": "ghosties"
    },
    {
      "mesh": 6,
      "name": "ghosties_halloweenpotion_0"
    },
    {
      "children": [
        17
      ],
      "matrix": [
        0.9718750540764955,
        0.23549708971409578,
        0.0,
        0.0,
        -0.23549708971409578,
        0.9718750540764955,
        0.0,
        0.0,
        0.0,
        0.0,
        1.0,
        0.0,
        0.0,
        0.0,
        0.0,
        1.0
      ],
      "name": "substance"
    },
    {
      "mesh": 7,
      "name": "substance_halloweenpotion_0"
    },
    {
      "children": [
        19
      ],
      "matrix": [
        0.9718750540764955,
        0.23549708971409578,
        0.0,
        0.0,
        -0.23549708971409578,
        0.9718750540764955,
        0.0,
        0.0,
        0.0,
        0.0,
        1.0,
        0.0,
        0.0,
        0.0,
        0.0,
        1.0
      ],
      "name": "ghostiewhite"
    },
    {
      "mesh": 8,
      "name": "ghostiewhite_halloweenpotion_0"
    },
    {
      "children": [
        21
      ],
      "matrix": [
        0.9718750540764955,
        0.23549708971409578,
        0.0,
        0.0,
        -0.23549708971409578,
        0.9718750540764955,
        0.0,
        0.0,
        0.0,
        0.0,
        1.0,
        0.0,
        0.0,
        0.0,
        0.0,
        1.0
      ],
      "name": "outlines"
    },
    {
      "mesh": 9,
      "name": "outlines_outline_0"
    }
  ],
  "samplers": [
    {
      "magFilter": 9729,
      "minFilter": 9987,
      "wrapS": 10497,
      "wrapT": 10497
    }
  ],
  "scene": 0,
  "scenes": [
    {
      "name": "Sketchfab_Scene",
      "nodes": [
        0
      ]
    }
  ],
  "textures": [
    {
      "sampler": 0,
      "source": 0
    }
  ]
}
